{
  "title": "Australian Survivor - S03E12",
  "uid": 15858468,
  "size": 442483545,
  "categoryP": "video",
  "categoryS": "tv_shows",
  "magnet": "?xt=urn:btih:186e44d1de3a54fcb87e0ae5222a95953b7f290b&amp;dn=Australian+Survivor+-+S03E12&amp;tr=udp%3A%2F%2Ftracker.leechers-paradise.org%3A6969&amp;tr=udp%3A%2F%2Fzer0day.ch%3A1337&amp;tr=udp%3A%2F%2Fopen.demonii.com%3A1337&amp;tr=udp%3A%2F%2Ftracker.coppersurfer.tk%3A6969&amp;tr=udp%3A%2F%2Fexodus.desync.com%3A6969",
  "seeders": 90,
  "leechers": 4,
  "uploader": "Bullrout",
  "files": 1,
  "time": 1474270149,
  "description": "Australian Survivor - S03E12\r\n\r\nTribal tensional continues to escalate when two people come to blows over their sleeping arrangements. With the losing team heading to tribal council who will be the next person to leave the island?\r\n\r\nComplete name : Australian Survivor - S03E12.mp4\r\nFormat : MPEG-4\r\nFormat profile : Base Media / Version 2\r\nCodec ID : mp42 (mp42/isom/avc1)\r\nFile size : 422 MiB\r\nDuration : 52 min 41 s\r\nOverall bit rate mode : Variable\r\nOverall bit rate : 1 120 kb/s\r\n\r\nVideo\r\nID : 2\r\nFormat : AVC\r\nFormat/Info : Advanced Video Codec\r\nFormat profile :   \r\nFormat settings, CABAC : Yes\r\nFormat settings, ReFrames : 3 frames\r\nCodec ID : avc1\r\nCodec ID/Info : Advanced Video Coding\r\nDuration : 52 min 41 s\r\nBit rate mode : Variable\r\nBit rate : 988 kb/s\r\nMaximum bit rate : 1 000 kb/s\r\nWidth : 720 pixels\r\nHeight : 404 pixels\r\nDisplay aspect ratio : 16:9\r\nOriginal display aspect ratio : 16:9\r\nFrame rate mode : Constant\r\nFrame rate : 25.000 FPS\r\nStandard : PAL\r\nColor space : YUV\r\nChroma subsampling : 4:2:0\r\nBit depth : 8 bits\r\nScan type : Progressive\r\nBits/(Pixel*Frame) : 0.136\r\nStream size : 372 MiB (88%)\r\nWriting library : x264 core 112\r\nColor range : Limited\r\nColor primaries : BT.601 PAL\r\nTransfer characteristics : BT.470 System B, BT.470 System G\r\nMatrix coefficients : BT.601\r\n\r\nAudio\r\nID : 1\r\nFormat : AAC\r\nFormat/Info : Advanced Audio Codec\r\nFormat profile : LC\r\nCodec ID : 40\r\nDuration : 52 min 41 s\r\nBit rate mode : Variable\r\nBit rate : 128 kb/s\r\nMaximum bit rate : 576 kb/s\r\nChannel(s) : 2 channels\r\nChannel positions : Front: L R\r\nSampling rate : 48.0 kHz\r\nFrame rate : 46.875 FPS (1024 spf)\r\nCompression mode : Lossy\r\nStream size : 48.2 MiB (11%)",
  "parsed": {
    "xt": "urn:btih:186e44d1de3a54fcb87e0ae5222a95953b7f290b",
    "dn": "Australian Survivor - S03E12",
    "tr": [
      "udp://exodus.desync.com:6969",
      "udp://open.demonii.com:1337",
      "udp://tracker.coppersurfer.tk:6969",
      "udp://tracker.leechers-paradise.org:6969",
      "udp://zer0day.ch:1337"
    ],
    "infoHash": "186e44d1de3a54fcb87e0ae5222a95953b7f290b",
    "infoHashBuffer": {
      "type": "Buffer",
      "data": [
        24,
        110,
        68,
        209,
        222,
        58,
        84,
        252,
        184,
        126,
        10,
        229,
        34,
        42,
        149,
        149,
        59,
        127,
        41,
        11
      ]
    },
    "name": "Australian Survivor - S03E12",
    "announce": [
      "udp://exodus.desync.com:6969",
      "udp://open.demonii.com:1337",
      "udp://tracker.coppersurfer.tk:6969",
      "udp://tracker.leechers-paradise.org:6969",
      "udp://zer0day.ch:1337"
    ],
    "urlList": []
  },
  "previous": 45,
  "peers": 32,
  "last_updated": "2016-12-26T17:32:47.424Z"
}